<svg width="203" height="166" viewBox="0 0 203 166" fill="none" xmlns="http://www.w3.org/2000/svg">
<line y1="6" x2="58.0345" y2="6" stroke="black" stroke-width="10"/>
<path d="M54.0008 2.49996C54.0008 118.5 87.5588 138.406 102.5 126.5" stroke="black" stroke-width="10"/>
<line x1="58" y1="110" x2="201.003" y2="110" stroke="black" stroke-width="10"/>
<line x1="197.921" y1="37.8847" x2="181.921" y2="126.885" stroke="black" stroke-width="10"/>
<path d="M103 155C103 161.075 98.0751 166 92 166C85.9249 166 81 161.075 81 155C81 148.925 85.9249 144 92 144C98.0751 144 103 148.925 103 155Z" fill="black"/>
<path d="M103 155C103 161.075 98.0751 166 92 166C85.9249 166 81 161.075 81 155C81 148.925 85.9249 144 92 144C98.0751 144 103 148.925 103 155Z" fill="black"/>
<path d="M103 155C103 161.075 98.0751 166 92 166C85.9249 166 81 161.075 81 155C81 148.925 85.9249 144 92 144C98.0751 144 103 148.925 103 155Z" fill="black"/>
<path d="M177 155C177 161.075 172.075 166 166 166C159.925 166 155 161.075 155 155C155 148.925 159.925 144 166 144C172.075 144 177 148.925 177 155Z" fill="black"/>
<path d="M177 155C177 161.075 172.075 166 166 166C159.925 166 155 161.075 155 155C155 148.925 159.925 144 166 144C172.075 144 177 148.925 177 155Z" fill="black"/>
<path d="M177 155C177 161.075 172.075 166 166 166C159.925 166 155 161.075 155 155C155 148.925 159.925 144 166 144C172.075 144 177 148.925 177 155Z" fill="black"/>
</svg>
