<svg width="386" height="386" viewBox="0 0 386 386" fill="none" xmlns="http://www.w3.org/2000/svg">
<circle cx="193" cy="193" r="193" fill="white"/>
<path d="M61.3864 204.92V196.114C69.2936 196.114 74.8097 194.456 77.9347 191.142C81.107 187.828 82.6932 182.288 82.6932 174.523V151.795C82.6932 145.261 83.3087 139.603 84.5398 134.821C85.8182 130.039 87.8778 126.085 90.7188 122.96C93.5597 119.835 97.3475 117.515 102.082 116C106.817 114.485 112.665 113.727 119.625 113.727V127.648C114.133 127.648 109.8 128.5 106.628 130.205C103.503 131.909 101.277 134.561 99.9517 138.159C98.6733 141.71 98.0341 146.256 98.0341 151.795V180.205C98.0341 183.898 97.5369 187.259 96.5426 190.29C95.5956 193.32 93.8201 195.924 91.2159 198.102C88.6117 200.28 84.8949 201.961 80.0653 203.145C75.2831 204.329 69.0568 204.92 61.3864 204.92ZM119.625 295.545C112.665 295.545 106.817 294.788 102.082 293.273C97.3475 291.758 93.5597 289.438 90.7188 286.312C87.8778 283.188 85.8182 279.234 84.5398 274.452C83.3087 269.67 82.6932 264.011 82.6932 257.477V234.75C82.6932 226.985 81.107 221.445 77.9347 218.131C74.8097 214.816 69.2936 213.159 61.3864 213.159V204.352C69.0568 204.352 75.2831 204.944 80.0653 206.128C84.8949 207.312 88.6117 208.992 91.2159 211.17C93.8201 213.348 95.5956 215.953 96.5426 218.983C97.5369 222.013 98.0341 225.375 98.0341 229.068V257.477C98.0341 263.017 98.6733 267.563 99.9517 271.114C101.277 274.665 103.503 277.293 106.628 278.997C109.8 280.749 114.133 281.625 119.625 281.625V295.545ZM61.3864 213.159V196.114H78.1477V213.159H61.3864Z" fill="#7300DF"/>
<path d="M320 193C320 263.14 263.14 320 193 320C122.86 320 163.5 263.14 163.5 193C163.5 122.86 122.86 66 193 66C263.14 66 320 122.86 320 193Z" fill="#1E1E1E"/>
<path d="M312 193C312 257.065 260.62 309 197.239 309C133.858 309 170.582 257.065 170.582 193C170.582 128.935 133.858 77 197.239 77C260.62 77 312 128.935 312 193Z" fill="#3EE29D"/>
</svg>
